<svg xmlns="http://www.w3.org/2000/svg" xmlns:xlink="http://www.w3.org/1999/xlink" id="Layer_1" x="0px" y="0px" viewBox="0 0 1080 1080" style="enable-background:new 0 0 1080 1080;" xml:space="preserve">
<style type="text/css">
	.st0{fill:#676C7E;}
</style>
<g>
	<g>
		<path class="st0" d="M276.96,319.31h25.13c50.79,3.85,100.48,24.34,137.54,59.57c38.99,36.02,64.27,86.56,69.2,139.43    c5.93,55.5-10.67,112.85-44.95,156.89c-38.51,50.35-99.19,81.98-162.35,86.05h-24.81c-46.59-3.06-92.34-20.08-128.45-49.88    c-47.64-38.29-77.06-97.1-81.29-157.9v-27.21c4.45-59.82,33.15-117.62,79.68-155.75C183.08,339.89,229.58,322.34,276.96,319.31z     M264.21,337.21c-40.88,4.83-80.24,22.16-111.02,49.53c-38.2,33.15-63.2,80.97-68.47,131.26c-4.89,44.16,5.02,89.87,28.16,127.82    c27.65,45.84,73.77,80.21,125.86,92.84c52.81,13.38,110.83,4.51,157.17-24.18c34.95-21.34,63.1-53.44,79.77-90.85    c19.73-43.5,23.01-94.01,9.88-139.84c-12.56-43.28-39.62-82.39-76.3-108.69C368.03,344.66,315,331.12,264.21,337.21z"/>
	</g>
	<g>
		<path class="st0" d="M214.58,416.32c24.46-0.76,48.93-0.32,73.43-0.32c31.91,0.47,65.16,13.51,84.22,40.06    c19.41,25.79,24.34,59.19,22.41,90.66c0.82,45.62-30.46,91.51-75.32,103.16c-31.03,7.99-63.36,5.81-95.05,5.46    c-5.9,0.47-11.74-4.58-11.11-10.7c-0.57-70.52,0.03-141.08-0.28-211.6C212.72,427.4,213.13,421.78,214.58,416.32z M228.85,432.42    c0.32,68.91-0.19,137.86,0.57,206.8c29.93-1.1,60.77,3.35,89.9-5.75c26.86-8.46,47.95-31.69,54.9-58.84    c6.94-27.43,6.79-57.01-1.74-84.1c-7.54-23.49-25.89-43.28-49.31-51.42C292.87,428.47,260.29,432.98,228.85,432.42z"/>
	</g>
	<g>
		<path class="st0" d="M719.1,437.59c5.08-0.09,10.13-0.06,15.22,0c-0.06,66.39-0.16,132.77,0.03,199.19    c1.45,1.07,4.36,3.25,5.78,4.36c0.09,3.98,0.16,7.99,0.25,12c-4.55-0.35-10.07,1.39-13.73-2.15c-8.74-6.44-5.3-18.4-5.97-27.62    c-13.29,19.6-35.83,33.87-60.04,32.83c-33.52-0.03-62.54-27.31-69.95-59.09c-8.43-32.89,4.23-71.6,33.49-90    c19.76-13.29,46.94-13.48,67.27-1.33c11.33,5.93,19.76,15.72,27.53,25.63C719.44,500.16,719.16,468.84,719.1,437.59z     M642.96,513.7c-20.27,7.8-34.12,27.5-38.13,48.42c-7.58,30.4,9.66,65.03,38.83,76.8c27.87,12.25,63.26-4.55,74.53-31.91    c2.3-15.85,0.38-32.01,1.07-47.98c1.36-13.07-8.59-23.45-17.17-31.91C686.55,512.82,663.16,505.31,642.96,513.7z"/>
	</g>
	<path class="st0" d="M781.51,437.47c4.8-0.03,9.63-0.06,14.46-0.13c-0.03,5.05-0.06,10.1-0.06,15.18   c-4.86-0.06-9.72-0.28-14.55-0.63C781.41,447.09,781.44,442.26,781.51,437.47z"/>
	<path class="st0" d="M999.42,437.47c4.86-0.03,9.72-0.03,14.58-0.06v15.18c-4.92-0.19-9.82-0.44-14.71-0.63   C999.32,447.13,999.35,442.3,999.42,437.47z"/>
	<path class="st0" d="M781.44,499.78c4.83-0.03,9.69-0.03,14.55-0.06c0.03,51.14,0.09,102.25-0.03,153.39   c-4.83-0.06-9.69-0.06-14.52-0.09C781.44,601.93,781.47,550.86,781.44,499.78z"/>
	<path class="st0" d="M825.64,500.07c5.11-0.19,10.23-0.35,15.37-0.51c18.97,46.09,38.07,92.11,56.57,138.39   c20.2-45.49,38.39-91.89,57.26-137.98c4.89-0.09,9.79-0.16,14.71-0.16c-21.12,51.11-42.58,102.09-63.89,153.13   c-5.27,0.03-10.51,0.06-15.75,0.09C868.32,602.12,847.54,550.86,825.64,500.07z"/>
	<path class="st0" d="M999.38,499.78c4.86-0.03,9.72-0.03,14.62-0.06v153.92c-4.89-0.41-9.75-0.63-14.62-0.85   C999.35,601.81,999.38,550.79,999.38,499.78z"/>
</g>
</svg>