<?xml version="1.0" encoding="utf-8"?>
<!-- Generator: Adobe Illustrator 27.3.1, SVG Export Plug-In . SVG Version: 6.00 Build 0)  -->
<svg version="1.1" baseProfile="tiny" id="Calque_1"
	 xmlns="http://www.w3.org/2000/svg" xmlns:xlink="http://www.w3.org/1999/xlink" x="0px" y="0px" viewBox="0 0 19.6 20"
	 overflow="visible" xml:space="preserve">
<path fill-rule="evenodd" d="M6.1,2.2h8.5c0.9,0,1.8,0.4,2.4,1c0.6,0.6,1,1.5,1,2.4v8.6c0,0.9-0.4,1.8-1,2.4c-0.6,0.6-1.5,1-2.4,1
	H6.1c-0.9,0-1.8-0.4-2.4-1c-0.6-0.6-1-1.5-1-2.4V5.6c0-0.9,0.4-1.8,1-2.4C4.3,2.5,5.2,2.2,6.1,2.2z M1,5.6C1,4.2,1.5,2.9,2.5,2
	c1-1,2.3-1.5,3.6-1.5h8.5C16,0.5,17.3,1,18.2,2c1,1,1.5,2.3,1.5,3.6v8.6c0,1.4-0.5,2.7-1.5,3.6c-1,1-2.3,1.5-3.6,1.5H6.1
	c-1.4,0-2.7-0.5-3.6-1.5c-1-1-1.5-2.3-1.5-3.6V5.6z M11.9,11.9c0,1.8-1.4,2.9-3.2,2.9c-1.8,0-3.2-1.1-3.2-2.9V6.2h1.6v5.5
	c0,0.8,0.4,1.4,1.5,1.4s1.5-0.6,1.5-1.4V6.2h1.6L11.9,11.9L11.9,11.9z M13.6,14.6V6.2h1.6v8.4L13.6,14.6L13.6,14.6z"/>
</svg>
