<svg viewBox="0 0 796 105" fill="none" xmlns="http://www.w3.org/2000/svg">
<g clip-path="url(#clip0_23_1199)">
<path fill-rule="evenodd" clip-rule="evenodd" d="M87.0459 0C63.8321 0 49.3273 11.5643 43.5212 34.6928C52.2269 23.1285 62.3823 18.7928 73.9875 21.6821C80.6088 23.3303 85.3437 28.1174 90.58 33.4174C99.115 42.0478 108.994 52.0357 130.567 52.0357C153.778 52.0357 168.286 40.4715 174.088 17.3464C165.386 28.9106 155.231 33.2464 143.626 30.3536C137.001 28.7055 132.266 23.9184 127.03 18.6218C118.495 9.98452 108.619 0 87.0459 0ZM43.5212 52.0357C20.3108 52.0357 5.8026 63.6 0 86.7285C8.70561 75.1643 18.861 70.8285 30.4628 73.7179C37.0875 75.366 41.8224 80.1531 47.0587 85.4531C55.5938 94.0835 65.4695 104.071 87.0459 104.071C110.256 104.071 124.765 92.5107 130.567 69.3821C121.862 80.9464 111.706 85.2821 100.101 82.3928C93.4796 80.7412 88.7447 75.9541 83.5084 70.6575C74.9733 62.0271 65.0942 52.0357 43.5212 52.0357Z" fill="#38BDF8"/>
<path fill-rule="evenodd" clip-rule="evenodd" d="M261.121 43.8532H245.93V73.1468C245.93 80.9601 251.074 80.837 261.121 80.348V92.1892C240.783 94.6307 232.698 89.0161 232.698 73.1468V43.8532H221.427V31.1572H232.698V14.7648L245.93 10.8565V31.1572H261.121V43.8532ZM319.024 31.1572H332.253V92.1892H319.024V83.4015C314.367 89.8675 307.139 93.7758 297.584 93.7758C280.923 93.7758 267.08 79.7393 267.08 61.6715C267.08 43.4874 280.923 29.5706 297.584 29.5706C307.139 29.5706 314.367 33.4755 319.024 39.8252V31.1572ZM299.668 81.2028C310.694 81.2028 319.024 73.0237 319.024 61.6715C319.024 50.3192 310.694 42.1436 299.668 42.1436C288.643 42.1436 280.313 50.3226 280.313 61.6715C280.313 73.0237 288.643 81.2028 299.668 81.2028ZM354.303 22.0036C349.65 22.0036 345.854 18.0986 345.854 13.5817C345.865 11.3431 346.76 9.20003 348.343 7.6216C349.927 6.04317 352.07 5.15797 354.303 5.15981C356.537 5.15707 358.681 6.04186 360.266 7.62039C361.85 9.19892 362.746 11.3425 362.757 13.5817C362.757 18.0952 358.96 22.0036 354.303 22.0036ZM347.689 92.1892V31.1572H360.921V92.1892H347.689ZM376.235 92.1892V3.07742H389.464V92.1858H376.235V92.1892ZM475.343 31.1572H489.309L470.076 92.1892H457.089L444.348 51.0544L431.484 92.1892H418.501L399.264 31.1572H413.23L425.115 73.2665L437.979 31.1572H450.597L463.335 73.2665L475.343 31.1572ZM505.724 22.0036C501.067 22.0036 497.271 18.0986 497.271 13.5817C497.281 11.3425 498.177 9.19892 499.762 7.62039C501.346 6.04186 503.49 5.15707 505.724 5.15981C507.958 5.15707 510.102 6.04186 511.686 7.62039C513.27 9.19892 514.166 11.3425 514.177 13.5817C514.177 18.0952 510.38 22.0036 505.724 22.0036ZM499.109 92.1892V31.1572H512.338V92.1892H499.109ZM559.871 29.5706C573.591 29.5706 583.392 38.8473 583.392 54.7165V92.1858H570.163V56.0569C570.163 46.7802 564.773 41.9008 556.443 41.9008C547.744 41.9008 540.884 47.0264 540.884 59.4763V92.1892H527.652V31.1572H540.884V38.9704C544.926 32.6241 551.541 29.5706 559.871 29.5706ZM646.115 6.74639H659.348V92.1858H646.115V83.3981C641.462 89.8675 634.234 93.7724 624.679 93.7724C608.018 93.7724 594.175 79.7359 594.175 61.6681C594.175 43.4839 608.018 29.5672 624.679 29.5672C634.234 29.5672 641.462 33.4721 646.115 39.8218V6.74639ZM626.76 81.2028C637.785 81.2028 646.115 73.0237 646.115 61.6715C646.115 50.3192 637.785 42.1436 626.76 42.1436C615.735 42.1436 607.404 50.3226 607.404 61.6715C607.404 73.0237 615.735 81.2028 626.76 81.2028Z" fill="black"/>
</g>
<rect x="712" y="13" width="81" height="79" rx="9" stroke="black" stroke-width="6"/>
<path d="M754.885 33.2273H760.83V59.0575C760.83 61.8061 760.184 64.2415 758.893 66.3636C757.602 68.473 755.786 70.1349 753.447 71.3494C751.107 72.5511 748.365 73.152 745.22 73.152C742.088 73.152 739.352 72.5511 737.013 71.3494C734.673 70.1349 732.858 68.473 731.567 66.3636C730.276 64.2415 729.63 61.8061 729.63 59.0575V33.2273H735.555V58.5781C735.555 60.3551 735.945 61.9339 736.725 63.3146C737.518 64.6953 738.636 65.782 740.081 66.5746C741.526 67.3544 743.239 67.7443 745.22 67.7443C747.215 67.7443 748.934 67.3544 750.379 66.5746C751.836 65.782 752.948 64.6953 753.715 63.3146C754.495 61.9339 754.885 60.3551 754.885 58.5781V33.2273ZM775.37 33.2273V72.5H769.445V33.2273H775.37Z" fill="black"/>
<defs>
<clipPath id="clip0_23_1199">
<rect width="660" height="105" fill="white"/>
</clipPath>
</defs>
</svg>
